<svg width="40" height="40" viewBox="0 0 40 40" fill="none" xmlns="http://www.w3.org/2000/svg">
<path d="M31.7 8.29204C29.385 5.97803 26.4357 4.40247 23.2253 3.76458C20.0148 3.1267 16.6873 3.45514 13.6635 4.70837C10.6396 5.9616 8.05536 8.08334 6.23738 10.8053C4.41941 13.5272 3.4494 16.7271 3.45001 20.0004C3.45001 24.3905 5.1934 28.6009 8.29689 31.7059C11.4004 34.811 15.6099 36.5565 20 36.5587C22.1725 36.5596 24.3241 36.135 26.3333 35.3087C28.3362 34.4633 30.158 33.2412 31.7 31.7087C33.2377 30.1712 34.4575 28.3459 35.2898 26.337C36.122 24.3281 36.5503 22.1749 36.5503 20.0004C36.5503 17.8259 36.122 15.6727 35.2898 13.6638C34.4575 11.6548 33.2377 9.8295 31.7 8.29204ZM30.5333 30.5254C28.1501 32.9188 25.023 34.4295 21.6667 34.8087V23.8754H24.8C25.242 23.8754 25.666 23.6998 25.9785 23.3872C26.2911 23.0747 26.4667 22.6507 26.4667 22.2087C26.4667 21.7667 26.2911 21.3428 25.9785 21.0302C25.666 20.7176 25.242 20.542 24.8 20.542H21.6667V15.9754C21.6667 15.5333 21.8423 15.1094 22.1548 14.7969C22.4674 14.4843 22.8913 14.3087 23.3333 14.3087H25.3333C25.7754 14.3087 26.1993 14.1331 26.5119 13.8206C26.8244 13.508 27 13.0841 27 12.642C27 12.2 26.8244 11.7761 26.5119 11.4635C26.1993 11.151 25.7754 10.9754 25.3333 10.9754H22.5C21.3949 10.9754 20.3351 11.4144 19.5537 12.1958C18.7723 12.9772 18.3333 14.037 18.3333 15.142V20.542H15.2167C14.7747 20.542 14.3507 20.7176 14.0382 21.0302C13.7256 21.3428 13.55 21.7667 13.55 22.2087C13.55 22.6507 13.7256 23.0747 14.0382 23.3872C14.3507 23.6998 14.7747 23.8754 15.2167 23.8754H18.3333V34.8087C15.2382 34.4556 12.3321 33.139 10.0258 31.0448C7.71938 28.9507 6.1292 26.1849 5.47985 23.138C4.83049 20.0912 5.15478 16.9174 6.4069 14.0648C7.65902 11.2123 9.77569 8.82517 12.4579 7.24074C15.1402 5.65631 18.2524 4.9546 21.355 5.23474C24.4577 5.51487 27.3939 6.7627 29.749 8.80195C32.104 10.8412 33.7589 13.5688 34.4798 16.5995C35.2007 19.6302 34.9513 22.8108 33.7667 25.692C33.0122 27.4974 31.9141 29.1389 30.5333 30.5254Z" fill="#22B2A5" fill-opacity="0.7"/>
</svg>
