<svg width="40" height="40" viewBox="0 0 40 40" fill="none" xmlns="http://www.w3.org/2000/svg">
<g clip-path="url(#clip0_86_79)">
<path d="M24.3937 14.9395C23.5462 14.9395 22.9187 15.1533 22.4275 15.4233C22.3487 15.1433 22.09 14.9383 21.785 14.9995H18.055C17.6862 14.9383 17.3875 15.237 17.5012 15.6245V29.3745C17.3875 29.7245 17.6862 30.0245 18.055 29.9995H21.785C22.1537 30.0245 22.4525 29.7245 22.4525 29.3558L22.4512 21.0458C22.45 21.042 22.4362 20.6445 22.6875 20.3708C22.8887 20.1533 23.235 20.042 23.7137 20.042C24.5112 20.042 24.8662 20.3683 24.9987 21.0983V29.3558C24.8675 29.7245 25.1662 30.0245 25.535 29.9995H29.4662C29.835 30.0245 30.1337 29.7245 30.0012 29.3558V20.8208C30.1325 16.4808 27.0412 14.9395 24.3937 14.9395ZM28.7975 28.7495H26.2025V21.0983C26.2025 19.622 25.2487 18.707 23.715 18.707C22.8475 18.707 22.1725 18.962 21.7075 19.4645C21.0612 20.1645 21.1112 21.052 21.25 21.2495V28.7495H18.7225V16.2745H21.1175V16.6945C21.1165 16.8196 21.1509 16.9425 21.2166 17.049C21.2823 17.1555 21.3767 17.2412 21.489 17.2965C21.6012 17.3517 21.7268 17.3741 21.8513 17.3612C21.9757 17.3482 22.094 17.3004 22.1925 17.2233L22.3675 17.0883C22.8737 16.6895 23.3975 16.2758 24.395 16.2758C25.4275 16.2758 28.7987 16.6045 28.7987 20.822L28.7975 28.7495ZM13.75 8.70703C12.3475 8.70703 11.2075 9.84703 11.2075 11.2495C11.2075 12.652 12.3475 13.792 13.75 13.792C15.1525 13.792 16.2925 12.652 16.2925 11.2495C16.2925 9.84703 15.1525 8.70703 13.75 8.70703ZM13.75 12.457C13.085 12.457 12.5425 11.9145 12.5425 11.2495C12.5425 10.5845 13.085 10.042 13.75 10.042C14.415 10.042 14.9575 10.5845 14.9575 11.2495C14.9575 11.9145 14.415 12.457 13.75 12.457ZM15.535 14.9383H11.825C11.4562 14.9383 11.1575 15.237 11.25 15.6245V29.3745C11.1575 29.7245 11.4562 30.0245 11.825 29.9995H15.535C15.9037 30.0245 16.2025 29.7245 16.2025 29.3558V15.6058C16.2025 15.4287 16.1322 15.259 16.007 15.1338C15.8818 15.0086 15.712 14.9383 15.535 14.9383ZM15 28.7495H12.4925V16.2745H15V28.7495Z" fill="#22B2A5" fill-opacity="0.7"/>
<path d="M20 -0.0429688C8.94749 -0.0429688 -0.042511 8.94703 -0.042511 19.9995C-0.042511 31.052 8.94749 40.042 20 40.042C31.0525 40.042 40.0425 31.052 40.0425 19.9995C40.0425 8.94703 31.0525 -0.0429688 20 -0.0429688ZM20 38.707C9.68499 38.707 1.29249 30.3145 1.29249 19.9995C1.29249 9.68453 9.68499 1.29203 20 1.29203C30.315 1.29203 38.7075 9.68453 38.7075 19.9995C38.7075 30.3145 30.315 38.707 20 38.707Z" fill="#22B2A5" fill-opacity="0.7"/>
</g>
<defs>
<clipPath id="clip0_86_79">
<rect width="40" height="40" fill="white"/>
</clipPath>
</defs>
</svg>
