<svg xmlns="http://www.w3.org/2000/svg" xmlns:xlink="http://www.w3.org/1999/xlink" width="400" zoomAndPan="magnify" viewBox="0 0 300 149.999998" height="200" preserveAspectRatio="xMidYMid meet" version="1.0"><defs><clipPath id="206c5410db"><path d="M 139 77 L 183.972656 77 L 183.972656 118 L 139 118 Z M 139 77 " clip-rule="nonzero"/></clipPath><clipPath id="95c228dc45"><path d="M 114.222656 62.214844 L 160 62.214844 L 160 102 L 114.222656 102 Z M 114.222656 62.214844 " clip-rule="nonzero"/></clipPath></defs><g clip-path="url(#206c5410db)"><path fill="#22b2a5" d="M 183.9375 97.265625 C 183.9375 108.199219 173.902344 117.0625 161.523438 117.0625 C 149.148438 117.0625 139.113281 108.199219 139.113281 97.265625 C 139.113281 86.332031 149.148438 77.46875 161.523438 77.46875 C 173.902344 77.46875 183.9375 86.332031 183.9375 97.265625 " fill-opacity="1" fill-rule="nonzero"/></g><g clip-path="url(#95c228dc45)"><path fill="#b96ef4" d="M 159.070312 82.015625 C 159.070312 92.949219 149.035156 101.8125 136.65625 101.8125 C 124.28125 101.8125 114.246094 92.949219 114.246094 82.015625 C 114.246094 71.085938 124.28125 62.222656 136.65625 62.222656 C 149.035156 62.222656 159.070312 71.085938 159.070312 82.015625 " fill-opacity="1" fill-rule="nonzero"/></g><path fill="#ffffff" d="M 139.554688 91.097656 C 139.554688 92.042969 139.316406 92.742188 138.839844 93.195312 C 138.359375 93.644531 137.6875 93.871094 136.820312 93.871094 C 135.929688 93.871094 135.242188 93.644531 134.765625 93.195312 C 134.289062 92.742188 134.046875 92.042969 134.046875 91.097656 C 134.046875 90.140625 134.289062 89.445312 134.765625 89.011719 C 135.242188 88.578125 135.929688 88.359375 136.820312 88.359375 C 137.742188 88.359375 138.429688 88.578125 138.878906 89.011719 C 139.332031 89.445312 139.554688 90.140625 139.554688 91.097656 Z M 144.429688 77.042969 C 144.429688 77.621094 144.328125 78.148438 144.121094 78.628906 C 143.914062 79.105469 143.652344 79.546875 143.328125 79.949219 C 143.003906 80.347656 142.644531 80.714844 142.25 81.046875 C 141.855469 81.382812 141.472656 81.6875 141.097656 81.96875 C 140.726562 82.246094 140.382812 82.503906 140.066406 82.742188 C 139.746094 82.984375 139.511719 83.207031 139.355469 83.417969 C 139.289062 83.507812 139.210938 83.644531 139.121094 83.828125 C 139.03125 84.011719 138.988281 84.222656 138.988281 84.453125 C 138.988281 85.054688 138.800781 85.550781 138.429688 85.941406 C 138.054688 86.332031 137.476562 86.523438 136.683594 86.523438 C 136.207031 86.523438 135.816406 86.449219 135.507812 86.300781 C 135.203125 86.148438 134.957031 85.964844 134.773438 85.742188 C 134.589844 85.519531 134.460938 85.277344 134.390625 85.023438 C 134.316406 84.765625 134.28125 84.53125 134.28125 84.320312 C 134.28125 83.566406 134.410156 82.929688 134.664062 82.417969 C 134.921875 81.90625 135.242188 81.464844 135.632812 81.089844 C 136.023438 80.71875 136.441406 80.390625 136.886719 80.113281 C 137.332031 79.835938 137.746094 79.546875 138.136719 79.246094 C 138.527344 78.945312 138.847656 78.609375 139.105469 78.234375 C 139.363281 77.863281 139.488281 77.398438 139.488281 76.84375 C 139.488281 76.265625 139.390625 75.808594 139.195312 75.472656 C 139.003906 75.140625 138.761719 74.890625 138.480469 74.730469 C 138.195312 74.570312 137.902344 74.46875 137.59375 74.429688 C 137.289062 74.390625 137.03125 74.371094 136.820312 74.371094 C 136.261719 74.371094 135.816406 74.453125 135.484375 74.613281 C 135.148438 74.773438 134.894531 74.976562 134.722656 75.222656 C 134.550781 75.46875 134.441406 75.738281 134.390625 76.03125 C 134.339844 76.328125 134.316406 76.609375 134.316406 76.875 C 134.316406 77.308594 134.230469 77.679688 134.066406 77.984375 C 133.898438 78.292969 133.6875 78.539062 133.4375 78.726562 C 133.1875 78.917969 132.914062 79.058594 132.621094 79.144531 C 132.324219 79.234375 132.054688 79.277344 131.8125 79.277344 C 131.054688 79.277344 130.441406 79.070312 129.976562 78.652344 C 129.507812 78.234375 129.273438 77.699219 129.273438 77.042969 C 129.273438 76.753906 129.308594 76.378906 129.375 75.925781 C 129.441406 75.46875 129.570312 74.984375 129.757812 74.472656 C 129.945312 73.960938 130.214844 73.449219 130.558594 72.9375 C 130.902344 72.425781 131.355469 71.960938 131.910156 71.550781 C 132.46875 71.140625 133.148438 70.804688 133.949219 70.550781 C 134.75 70.292969 135.707031 70.164062 136.820312 70.164062 C 138.074219 70.164062 139.179688 70.335938 140.132812 70.675781 C 141.082031 71.011719 141.875 71.488281 142.511719 72.09375 C 143.144531 72.699219 143.621094 73.421875 143.945312 74.261719 C 144.269531 75.105469 144.429688 76.03125 144.429688 77.042969 " fill-opacity="1" fill-rule="nonzero"/><path fill="#b96ef4" d="M 122.613281 97.445312 C 124.269531 99.398438 122.867188 101.058594 120.421875 104.730469 C 119.753906 105.734375 120.6875 107.03125 121.855469 106.730469 C 125.140625 105.882812 129.273438 101.972656 132.601562 101.488281 C 132.601562 101.488281 131.4375 96.953125 128.828125 95.769531 C 126.105469 94.53125 121.945312 96.660156 122.613281 97.445312 " fill-opacity="1" fill-rule="nonzero"/><path fill="#22b2a5" d="M 175.347656 112.636719 C 173.691406 114.589844 175.09375 116.253906 177.539062 119.925781 C 178.210938 120.929688 177.277344 122.222656 176.109375 121.921875 C 172.820312 121.074219 168.6875 117.167969 165.359375 116.683594 C 165.359375 116.683594 166.527344 112.148438 169.132812 110.960938 C 171.859375 109.722656 176.015625 111.851562 175.347656 112.636719 " fill-opacity="1" fill-rule="nonzero"/><path fill="#ffffff" d="M 154.132812 102.097656 C 154.132812 100.535156 152.738281 99.265625 151.015625 99.265625 C 149.296875 99.265625 147.902344 100.535156 147.902344 102.097656 C 147.902344 103.660156 149.296875 104.929688 151.015625 104.929688 C 152.738281 104.929688 154.132812 103.660156 154.132812 102.097656 " fill-opacity="1" fill-rule="nonzero"/><path fill="#ffffff" d="M 164.132812 102.097656 C 164.132812 100.535156 162.738281 99.265625 161.019531 99.265625 C 159.296875 99.265625 157.902344 100.535156 157.902344 102.097656 C 157.902344 103.660156 159.296875 104.929688 161.019531 104.929688 C 162.738281 104.929688 164.132812 103.660156 164.132812 102.097656 " fill-opacity="1" fill-rule="nonzero"/><path fill="#ffffff" d="M 174.132812 102.097656 C 174.132812 100.535156 172.738281 99.265625 171.019531 99.265625 C 169.296875 99.265625 167.90625 100.535156 167.90625 102.097656 C 167.90625 103.660156 169.296875 104.929688 171.019531 104.929688 C 172.738281 104.929688 174.132812 103.660156 174.132812 102.097656 " fill-opacity="1" fill-rule="nonzero"/></svg>